<?xml version="1.0" encoding="iso-8859-1"?>
<!-- Uploaded to: SVG Repo, www.svgrepo.com, Generator: SVG Repo Mixer Tools -->
<svg height="800px" width="800px" version="1.1" id="Layer_1" xmlns="http://www.w3.org/2000/svg" xmlns:xlink="http://www.w3.org/1999/xlink" 
	 viewBox="0 0 512 512" xml:space="preserve">
<path style="fill:#FF877F;" d="M229.453,13.141l-13.466-0.708v255.821h-0.009l0.009,0.017l0,0l108.834,231.262l11.904-6.4
	c83.106-44.715,134.733-130.876,134.733-224.853C471.45,132.318,365.15,20.25,229.453,13.141z"/>
<path style="fill:#A0BF7C;" d="M40.158,268.254l1.084,13.798c7.1,90.641,83.857,161.647,174.746,161.647
	c20.804,0,41.626-3.917,61.858-11.631l12.902-4.915l-74.761-158.882L40.158,268.254z"/>
<path style="fill:#FEDEA1;" d="M215.987,92.442l-13.798,1.084c-85.077,6.673-154.257,75.861-160.939,160.922l-1.084,13.798
	l175.821,0.017V92.442z"/>
<path style="fill:#573A32;" d="M215.987,456.499c24.141,0,47.027-4.898,68.207-13.218l28.877,61.363
	c1.451,3.072,4.062,5.453,7.253,6.596c1.417,0.512,2.876,0.759,4.335,0.759c1.877,0,3.738-0.401,5.461-1.229
	c93.628-44.126,154.129-139.324,154.129-242.5C484.25,120.354,363.913,0,215.987,0c-7.074,0-12.8,5.726-12.8,12.8v67.874
	C105.225,87.287,27.75,168.627,27.75,268.271C27.75,372.224,112.026,456.499,215.987,456.499z M228.787,25.924
	C356.659,32.623,458.65,138.752,458.65,268.271c0,89.054-49.835,171.529-128,213.572L228.787,265.421V25.924z M203.187,106.283
	v149.171H53.999C60.245,175.991,123.725,112.512,203.187,106.283z M207.846,281.054l65.442,139.051
	c-17.852,6.818-37.077,10.795-57.301,10.795c-85.367,0-155.426-66.142-161.988-149.854h153.847V281.054z"/>
</svg>